# xmcd
# 
# Track frame offsets:
#     150
#     20025
#     34575
#     48675
#     60637
#     77362
#     88762
#     100537
#     112162
#     125099
#     145274
#     158924
# 
# Disc length: 2400
# 
# Revision: 0
# Processed by: cddbd v1.5.2PL0 Copyright (c) Steve Scherf et al.
# Submitted via: fre:ac v1.0.31
# 
DISCID=9f095e0c
DTITLE=久野幹史 - Lute Solo Album "A.O"
DYEAR=0
DGENRE=
TTITLE0=Breezing
TTITLE1=Cathedral fig tree
TTITLE2=Memories of shell
TTITLE3=A Port (Straloch Ms.)
TTITLE4=Le vent de Nouvelle Caledonie
TTITLE5=Beautiful ground
TTITLE6=Siciliana (Anonimous)
TTITLE7=Sanoe (Queen Lil'iuokalani)
TTITLE8=UMINAGI
TTITLE9=ARIGATOU
TTITLE10=Chaconne (Silvius Leopold Weiss)
TTITLE11=A.O
EXTD=
EXTT0=
EXTT1=
EXTT2=
EXTT3=
EXTT4=
EXTT5=
EXTT6=
EXTT7=
EXTT8=
EXTT9=
EXTT10=
EXTT11=
PLAYORDER=
